<svg width="100" height="100" viewBox="0 0 100 100" fill="none" xmlns="http://www.w3.org/2000/svg">
<path d="M93.3332 36.6667H83.3332V26.6667C83.3332 19.5942 80.5236 12.8115 75.5227 7.81048C70.5217 2.80952 63.7389 0 56.6665 0H39.9998C32.9274 0 26.1446 2.80952 21.1437 7.81048C16.1427 12.8115 13.3332 19.5942 13.3332 26.6667V67C9.28638 67.826 5.69044 70.1253 3.24253 73.4519C0.794617 76.7786 -0.330876 80.8957 0.0842519 85.005C0.49938 89.1144 2.42555 92.9232 5.48934 95.6931C8.55313 98.463 12.5363 99.9966 16.6665 99.9966C20.7968 99.9966 24.7799 98.463 27.8437 95.6931C30.9075 92.9232 32.8337 89.1144 33.2488 85.005C33.6639 80.8957 32.5384 76.7786 30.0905 73.4519C27.6426 70.1253 24.0467 67.826 19.9998 67V26.6667C19.9998 21.3623 22.107 16.2753 25.8577 12.5245C29.6084 8.7738 34.6955 6.66666 39.9998 6.66666H56.6665C61.9708 6.66666 67.0579 8.7738 70.8086 12.5245C74.5594 16.2753 76.6665 21.3623 76.6665 26.6667V36.6667H73.3332V26.6667C73.3332 24.478 72.9021 22.3107 72.0645 20.2886C71.2269 18.2665 69.9993 16.4292 68.4516 14.8815C66.904 13.3339 65.0666 12.1062 63.0446 11.2687C61.0225 10.4311 58.8552 10 56.6665 10H53.3332C48.9129 10 44.6737 11.7559 41.5481 14.8815C38.4225 18.0072 36.6665 22.2464 36.6665 26.6667V33.3333H33.3332C32.4491 33.3333 31.6013 33.6845 30.9762 34.3096C30.351 34.9348 29.9998 35.7826 29.9998 36.6667C29.9998 37.5507 30.351 38.3986 30.9762 39.0237C31.6013 39.6488 32.4491 40 33.3332 40H36.6665V44.1C30.5665 47.1333 29.9998 58.4 29.9998 62.2333C29.8635 65.0289 30.8384 67.765 32.7119 69.8445C34.5853 71.9241 37.2052 73.1782 39.9998 73.3333C42.7945 73.1782 45.4144 71.9241 47.2878 69.8445C49.1612 67.765 50.1362 65.0289 49.9998 62.2333C49.9998 58.4 49.4332 47.1333 43.3332 44.1V26.6667C43.3332 24.0145 44.3867 21.471 46.2621 19.5956C48.1375 17.7202 50.681 16.6667 53.3332 16.6667H56.6665C59.3187 16.6667 61.8622 17.7202 63.7376 19.5956C65.6129 21.471 66.6665 24.0145 66.6665 26.6667V36.6667H63.3332C60.681 36.6667 58.1375 37.7202 56.2621 39.5956C54.3867 41.4709 53.3332 44.0145 53.3332 46.6666V93.3333C53.3332 95.1014 54.0355 96.7971 55.2858 98.0473C56.536 99.2976 58.2317 100 59.9998 100H89.9998C92.652 100 95.1955 98.9464 97.0709 97.071C98.9463 95.1957 99.9998 92.6521 99.9998 90V43.3333C99.9998 41.5652 99.2974 39.8695 98.0472 38.6193C96.797 37.369 95.1013 36.6667 93.3332 36.6667ZM26.6665 83.3333C26.6665 85.3111 26.08 87.2445 24.9812 88.889C23.8824 90.5335 22.3206 91.8152 20.4933 92.5721C18.6661 93.329 16.6554 93.527 14.7156 93.1412C12.7758 92.7553 10.994 91.8029 9.59545 90.4044C8.19693 89.0058 7.24452 87.224 6.85867 85.2842C6.47281 83.3444 6.67085 81.3337 7.42772 79.5065C8.1846 77.6792 9.46632 76.1174 11.1108 75.0186C12.7553 73.9198 14.6887 73.3333 16.6665 73.3333C19.3187 73.3333 21.8622 74.3869 23.7376 76.2622C25.6129 78.1376 26.6665 80.6811 26.6665 83.3333ZM39.9998 66.6666C38.9863 66.4868 38.0787 65.9292 37.4601 65.1064C36.8414 64.2837 36.5579 63.2569 36.6665 62.2333C36.6665 55.3333 38.4665 50 39.9998 50C41.5332 50 43.3332 55.3333 43.3332 62.2333C43.4418 63.2569 43.1582 64.2837 42.5396 65.1064C41.921 65.9292 41.0134 66.4868 39.9998 66.6666ZM59.9998 56.6666H93.3332V80H59.9998V56.6666ZM63.3332 43.3333H93.3332V50H59.9998V46.6666C59.9998 45.7826 60.351 44.9347 60.9761 44.3096C61.6013 43.6845 62.4491 43.3333 63.3332 43.3333ZM89.9998 93.3333H59.9998V86.6666H93.3332V90C93.3332 90.884 92.982 91.7319 92.3568 92.357C91.7317 92.9821 90.8839 93.3333 89.9998 93.3333Z" fill="#3CBCFF"/>
<path d="M13.3332 80V86.6666C13.3332 87.5507 13.6844 88.3985 14.3095 89.0236C14.9346 89.6488 15.7825 90 16.6665 90C17.5506 90 18.3984 89.6488 19.0235 89.0236C19.6487 88.3985 19.9999 87.5507 19.9999 86.6666V80C19.9999 79.1159 19.6487 78.2681 19.0235 77.6429C18.3984 77.0178 17.5506 76.6666 16.6665 76.6666C15.7825 76.6666 14.9346 77.0178 14.3095 77.6429C13.6844 78.2681 13.3332 79.1159 13.3332 80Z" fill="#3CBCFF"/>
</svg>
