<svg width="16" height="17" viewBox="0 0 16 17" fill="none" xmlns="http://www.w3.org/2000/svg">
<path fill-rule="evenodd" clip-rule="evenodd" d="M4.16343 4.14634H3.06175C2.69474 4.14636 2.34137 4.28542 2.07279 4.53554C1.80421 4.78565 1.64037 5.12824 1.61426 5.49432L0.90358 15.4455C0.889403 15.6443 0.916313 15.8439 0.982633 16.0318C1.04895 16.2197 1.15326 16.3919 1.28906 16.5378C1.42486 16.6836 1.58924 16.7999 1.77195 16.8794C1.95466 16.9589 2.1518 17 2.35107 17H13.8381C14.0373 16.9999 14.2344 16.9587 14.4171 16.8792C14.5997 16.7996 14.764 16.6833 14.8998 16.5375C15.0356 16.3917 15.1399 16.2195 15.2063 16.0316C15.2726 15.8438 15.2996 15.6443 15.2856 15.4455L14.5749 5.49432C14.5488 5.12824 14.3849 4.78565 14.1164 4.53554C13.8478 4.28542 13.4944 4.14636 13.1274 4.14634H12.0336V3.93902C12.0336 2.89433 11.6186 1.89242 10.8799 1.15371C10.1412 0.415003 9.13927 0 8.09458 0C5.9986 0 4.06143 1.66932 4.15556 3.93902L4.16343 4.14634ZM12.0336 5.39024V8.5C12.0336 8.66495 11.9681 8.82315 11.8514 8.93979C11.7348 9.05642 11.5766 9.12195 11.4117 9.12195C11.2467 9.12195 11.0885 9.05642 10.9719 8.93979C10.8552 8.82315 10.7897 8.66495 10.7897 8.5V5.39024H5.39946V8.5C5.39946 8.66495 5.33393 8.82315 5.21729 8.93979C5.10065 9.05642 4.94246 9.12195 4.77751 9.12195C4.61255 9.12195 4.45436 9.05642 4.33772 8.93979C4.22108 8.82315 4.15556 8.66495 4.15556 8.5C4.15556 8.5 4.20946 7.04671 4.19163 5.39024H3.06175C3.0094 5.39032 2.95902 5.41019 2.92072 5.44588C2.88241 5.48156 2.85903 5.53042 2.85526 5.58263L2.14417 15.5339C2.14211 15.5623 2.14594 15.5908 2.15541 15.6177C2.16488 15.6446 2.17979 15.6692 2.19921 15.69C2.21862 15.7109 2.24213 15.7275 2.26825 15.7389C2.29438 15.7503 2.32257 15.7561 2.35107 15.7561H13.8381C13.8665 15.756 13.8947 15.7501 13.9208 15.7386C13.9468 15.7272 13.9703 15.7106 13.9897 15.6898C14.0091 15.669 14.024 15.6444 14.0335 15.6176C14.043 15.5907 14.0469 15.5622 14.045 15.5339L13.3339 5.58263C13.3301 5.53042 13.3067 5.48156 13.2684 5.44588C13.2301 5.41019 13.1798 5.39032 13.1274 5.39024H12.0336ZM10.7897 4.14634V3.93902C10.7897 3.22423 10.5058 2.53872 10.0003 2.03329C9.49489 1.52785 8.80937 1.2439 8.09458 1.2439C7.37979 1.2439 6.69427 1.52785 6.18884 2.03329C5.68341 2.53872 5.39946 3.22423 5.39946 3.93902V4.14634H10.7897Z" fill="#222222"/>
</svg>
