<svg width="100" height="100" viewBox="0 0 100 100" fill="none" xmlns="http://www.w3.org/2000/svg">
<g clip-path="url(#clip0_455_28)">
<path d="M73.6328 17.5781C75.2508 17.5781 76.5625 16.2665 76.5625 14.6484C76.5625 13.0304 75.2508 11.7188 73.6328 11.7188C72.0148 11.7188 70.7031 13.0304 70.7031 14.6484C70.7031 16.2665 72.0148 17.5781 73.6328 17.5781Z" fill="#3CBCFF"/>
<path d="M73.6328 41.2109C75.2508 41.2109 76.5625 39.8993 76.5625 38.2812C76.5625 36.6632 75.2508 35.3516 73.6328 35.3516C72.0148 35.3516 70.7031 36.6632 70.7031 38.2812C70.7031 39.8993 72.0148 41.2109 73.6328 41.2109Z" fill="#3CBCFF"/>
<path d="M73.6328 29.4922C75.2508 29.4922 76.5625 28.1805 76.5625 26.5625C76.5625 24.9445 75.2508 23.6328 73.6328 23.6328C72.0148 23.6328 70.7031 24.9445 70.7031 26.5625C70.7031 28.1805 72.0148 29.4922 73.6328 29.4922Z" fill="#3CBCFF"/>
<path d="M61.9141 11.7188H26.3672C24.7492 11.7188 23.4375 13.0305 23.4375 14.6484V38.2812C23.4375 39.8992 24.7492 41.2109 26.3672 41.2109H61.9141C63.532 41.2109 64.8438 39.8992 64.8438 38.2812V14.6484C64.8438 13.0305 63.532 11.7188 61.9141 11.7188ZM58.9844 35.3516H29.2969V17.5781H58.9844V35.3516Z" fill="#3CBCFF"/>
<path d="M91.2109 29.4922H88.2812V8.78906C88.2812 3.94277 84.3385 0 79.4922 0H20.5078C15.6615 0 11.7188 3.94277 11.7188 8.78906V29.4922H8.78906C3.94277 29.4922 0 33.435 0 38.2812V73.6328C0 78.4791 3.94277 82.4219 8.78906 82.4219H11.7188V85.3516C11.7188 90.1979 15.6615 94.1406 20.5078 94.1406H23.9414C25.1508 97.5506 28.4072 100 32.2266 100C37.0729 100 41.0156 96.0572 41.0156 91.2109V67.7734C41.0156 62.9271 37.0729 58.9844 32.2266 58.9844C28.4072 58.9844 25.1508 61.4338 23.9414 64.8438H20.5078C15.6615 64.8438 11.7188 68.7865 11.7188 73.6328V76.5625H8.78906C7.17363 76.5625 5.85938 75.2482 5.85938 73.6328V38.2812C5.85938 36.6658 7.17363 35.3516 8.78906 35.3516H11.7188V44.1406C11.7188 48.9869 15.6615 52.9297 20.5078 52.9297H79.4922C84.3385 52.9297 88.2812 48.9869 88.2812 44.1406V35.3516H91.2109C92.8264 35.3516 94.1406 36.6658 94.1406 38.2812V73.6328C94.1406 75.2482 92.8264 76.5625 91.2109 76.5625H88.2812V73.6328C88.2812 68.7865 84.3385 64.8438 79.4922 64.8438H76.0586C74.8492 61.4338 71.5928 58.9844 67.7734 58.9844C62.9271 58.9844 58.9844 62.9271 58.9844 67.7734V91.2109C58.9844 96.0572 62.9271 100 67.7734 100C71.5928 100 74.8492 97.5506 76.0586 94.1406H79.4922C84.3385 94.1406 88.2812 90.1979 88.2812 85.3516V82.4219H91.2109C96.0572 82.4219 100 78.4791 100 73.6328V38.2812C100 33.435 96.0572 29.4922 91.2109 29.4922ZM29.2969 67.7734C29.2969 66.158 30.6111 64.8438 32.2266 64.8438C33.842 64.8438 35.1562 66.158 35.1562 67.7734V91.2109C35.1562 92.8264 33.842 94.1406 32.2266 94.1406C30.6111 94.1406 29.2969 92.8264 29.2969 91.2109V67.7734ZM17.5781 73.6328C17.5781 72.0174 18.8924 70.7031 20.5078 70.7031H23.4375V88.2812H20.5078C18.8924 88.2812 17.5781 86.967 17.5781 85.3516V73.6328ZM82.4219 44.1406C82.4219 45.7561 81.1076 47.0703 79.4922 47.0703H20.5078C18.8924 47.0703 17.5781 45.7561 17.5781 44.1406V8.78906C17.5781 7.17363 18.8924 5.85938 20.5078 5.85938H79.4922C81.1076 5.85938 82.4219 7.17363 82.4219 8.78906V44.1406ZM70.7031 91.2109C70.7031 92.8264 69.3889 94.1406 67.7734 94.1406C66.158 94.1406 64.8438 92.8264 64.8438 91.2109V67.7734C64.8438 66.158 66.158 64.8438 67.7734 64.8438C69.3889 64.8438 70.7031 66.158 70.7031 67.7734V91.2109ZM82.4219 85.3516C82.4219 86.967 81.1076 88.2812 79.4922 88.2812H76.5625V70.7031H79.4922C81.1076 70.7031 82.4219 72.0174 82.4219 73.6328V85.3516Z" fill="#3CBCFF"/>
</g>
<defs>
<clipPath id="clip0_455_28">
<rect width="100" height="100" fill="white"/>
</clipPath>
</defs>
</svg>
