<svg width="100" height="100" viewBox="0 0 100 100" fill="none" xmlns="http://www.w3.org/2000/svg">
<path d="M16.6976 27.3647L25.8064 33.8709L34.9152 27.3647C35.59 26.8827 36.1399 26.2466 36.5193 25.5093C36.8987 24.772 37.0967 23.9548 37.0967 23.1256V23.1106C37.0967 22.4313 36.9629 21.7587 36.703 21.1311C36.443 20.5035 36.062 19.9333 35.5816 19.453C35.0393 18.9105 34.3955 18.4802 33.6868 18.1866C32.9782 17.893 32.2187 17.7418 31.4516 17.7418C30.6845 17.7418 29.925 17.8929 29.2163 18.1865C28.5077 18.48 27.8638 18.9103 27.3215 19.4528L25.8064 20.9678L24.2914 19.4528C23.749 18.9104 23.1052 18.4801 22.3965 18.1866C21.6879 17.8931 20.9284 17.742 20.1613 17.742C19.3943 17.742 18.6348 17.8931 17.9261 18.1866C17.2175 18.4801 16.5736 18.9104 16.0312 19.4528C15.0612 20.4229 14.5162 21.7385 14.5162 23.1104V23.1254C14.5162 24.8081 15.3287 26.387 16.6976 27.3647ZM37.0967 87.0967V83.8709H30.6451V87.0967C30.6452 87.5245 30.8151 87.9347 31.1176 88.2372C31.42 88.5396 31.8303 88.7096 32.258 88.7096H35.4838C35.6956 88.7096 35.9053 88.6679 36.101 88.5869C36.2967 88.5058 36.4746 88.387 36.6243 88.2373C36.7741 88.0875 36.8929 87.9097 36.974 87.714C37.055 87.5183 37.0967 87.3085 37.0967 87.0967ZM74.3178 70.9678H96.6498L94.0691 64.5163H76.8984L74.3178 70.9678ZM77.4193 46.7743V61.2905H93.5484V46.7743C93.5484 42.3276 89.9307 38.7098 85.484 38.7098C81.0373 38.7098 77.4193 42.3274 77.4193 46.7743ZM93.5484 90.1491C95.1861 88.4756 96.3086 86.2973 96.657 83.8711H93.5484V90.1491ZM74.1935 74.1936H96.7742V80.6452H74.1935V74.1936ZM80.6451 92.4569C81.6651 92.9426 82.7526 93.2711 83.8709 93.4315V83.8709H80.6451V92.4569ZM77.4193 90.1491V83.8711H74.3107C74.6592 86.2969 75.7816 88.4754 77.4193 90.1491ZM87.0967 93.4313C88.215 93.2711 89.3025 92.9425 90.3225 92.4567V83.8709H87.0967V93.4313ZM30.6451 74.1936C32.7477 74.1936 34.5404 72.845 35.2064 70.9678H26.0838C26.7498 72.845 28.5426 74.1936 30.6451 74.1936ZM30.6451 64.5163C28.5426 64.5163 26.7498 65.8649 26.0838 67.742H35.2064C34.5404 65.8647 32.7478 64.5163 30.6451 64.5163Z" fill="#3CBCFF"/>
<path d="M41.9375 80.6451L41.9357 49.2031L35.173 52.0508C22.5352 57.3721 12.9691 67.7236 8.64453 80.6451H41.9375ZM30.6451 77.4193C26.1984 77.4193 22.5807 73.8016 22.5807 69.3549C22.5807 64.9082 26.1984 61.2904 30.6451 61.2904C35.0918 61.2904 38.7096 64.9082 38.7096 69.3549C38.7096 73.8016 35.092 77.4193 30.6451 77.4193Z" fill="#3CBCFF"/>
<path d="M33.9211 49.0777L42.3724 45.5193L46.0031 38.258C47.5627 35.1387 48.3869 31.6467 48.3869 28.1596V25.8063C48.3869 13.3553 38.2572 3.22559 25.8062 3.22559C13.3553 3.22559 3.22577 13.3555 3.22577 25.8064V80.6451H5.25292C7.37753 73.8479 10.9691 67.4746 15.6904 62.1484C20.682 56.5174 26.9863 51.9979 33.9211 49.0777ZM25.8064 8.06445C35.6051 8.06445 43.5484 16.0078 43.5484 25.8064C43.5484 35.6051 35.6051 43.5484 25.8064 43.5484C16.0078 43.5484 8.06444 35.6051 8.06444 25.8064C8.06444 16.0078 16.0078 8.06445 25.8064 8.06445ZM14.5162 56.4516C14.5162 58.2332 13.0721 59.6773 11.2904 59.6773C9.50878 59.6773 8.06464 58.2332 8.06464 56.4516V54.8387H14.5162V56.4516ZM14.5162 51.6129H8.06444V50C8.06444 48.2184 9.50858 46.7742 11.2902 46.7742C13.0719 46.7742 14.5162 48.2184 14.5162 50V51.6129ZM83.8709 16.1291V27.4193C83.4431 27.4193 83.0329 27.5893 82.7304 27.8917C82.4279 28.1942 82.258 28.6045 82.258 29.0322V35.9559C84.3624 35.3263 86.6051 35.3263 88.7096 35.9559V29.0322C88.7096 28.6045 88.5396 28.1942 88.2372 27.8917C87.9347 27.5893 87.5244 27.4193 87.0967 27.4193V16.1291C87.0967 7.23555 79.8613 0 70.9678 0C62.0742 0 54.8387 7.23555 54.8387 16.1291V87.0355C54.8387 92.4055 50.4699 96.7742 45.1 96.7742C41.4773 96.7742 38.2814 94.8076 36.6029 91.8035C36.2363 91.8911 35.8607 91.9354 35.4838 91.9355H33.0926C35.0398 96.7396 39.7168 100 45.0998 100C52.2484 100 58.0642 94.184 58.0642 87.0355V16.1291C58.0642 9.01426 63.8525 3.22578 70.9676 3.22578C78.0826 3.22578 83.8709 9.01406 83.8709 16.1291Z" fill="#3CBCFF"/>
</svg>
