<svg width="21" height="17" viewBox="0 0 21 17" fill="none" xmlns="http://www.w3.org/2000/svg">
<path d="M14.9147 0C13.2447 0 11.7808 0.744645 10.6811 2.15348C10.5412 2.33306 10.41 2.51925 10.2879 2.7114C10.1658 2.51925 10.0346 2.33306 9.89463 2.15348C8.79497 0.744645 7.33101 0 5.66104 0C2.50633 0 0.25 2.64149 0.25 5.81114C0.25 9.43548 3.22046 12.8513 9.88153 16.8865C10.0064 16.9622 10.1471 17 10.2879 17C10.4286 17 10.5693 16.9622 10.6942 16.8866C17.3553 12.8513 20.3257 9.43552 20.3257 5.81118C20.3257 2.64318 18.0713 0 14.9147 0ZM16.6853 10.3241C15.2986 11.8714 13.203 13.5007 10.2879 15.2969C7.37277 13.5007 5.27717 11.8714 3.89041 10.3241C2.49617 8.7684 1.81842 7.2922 1.81842 5.81118C1.81842 3.52898 3.36072 1.56842 5.66104 1.56842C6.83249 1.56842 7.83134 2.07776 8.62986 3.08233C9.26836 3.88572 9.53738 4.71529 9.53927 4.72121C9.58905 4.88083 9.68853 5.02035 9.82321 5.11943C9.9579 5.2185 10.1207 5.27194 10.2879 5.27194C10.4551 5.27194 10.6179 5.2185 10.7526 5.11943C10.8873 5.02035 10.9868 4.88083 11.0366 4.72121C11.039 4.71329 11.3 3.90959 11.9175 3.11848C12.7203 2.08992 13.7287 1.56838 14.9147 1.56838C17.2175 1.56838 18.7573 3.53082 18.7573 5.81114C18.7573 7.29216 18.0796 8.76836 16.6853 10.3241Z" fill="#222222"/>
</svg>
