<svg width="15" height="15" viewBox="0 0 15 15" fill="none" xmlns="http://www.w3.org/2000/svg">
<g clip-path="url(#clip0_442_7)">
<path d="M7.5025 3.64874C5.37562 3.64874 3.65375 5.37249 3.65375 7.49749C3.65375 9.62437 5.3775 11.3462 7.5025 11.3462C9.62937 11.3462 11.3512 9.62249 11.3512 7.49749C11.3512 5.37062 9.6275 3.64874 7.5025 3.64874ZM7.5025 9.99562C6.12187 9.99562 5.00437 8.87749 5.00437 7.49749C5.00437 6.11749 6.1225 4.99937 7.5025 4.99937C8.8825 4.99937 10.0006 6.11749 10.0006 7.49749C10.0012 8.87749 8.88312 9.99562 7.5025 9.99562Z" fill="white"/>
<path d="M10.5924 0.047727C9.2124 -0.016648 5.79427 -0.013523 4.41302 0.047727C3.19927 0.104602 2.12865 0.397727 1.26552 1.26085C-0.176977 2.70335 0.0073979 4.6471 0.0073979 7.49773C0.0073979 10.4152 -0.155102 12.314 1.26552 13.7346C2.71365 15.1821 4.68552 14.9927 7.5024 14.9927C10.3924 14.9927 11.3899 14.9946 12.4118 14.599C13.8011 14.0596 14.8499 12.8177 14.9524 10.5871C15.0174 9.20648 15.0136 5.78898 14.9524 4.40773C14.8286 1.7746 13.4155 0.177727 10.5924 0.047727ZM12.7768 12.7802C11.8311 13.7259 10.5193 13.6415 7.48427 13.6415C4.35927 13.6415 3.10615 13.6877 2.19177 12.7709C1.13865 11.7227 1.32927 10.0396 1.32927 7.48773C1.32927 4.0346 0.974898 1.54773 4.44052 1.37023C5.23677 1.3421 5.47115 1.33273 7.47552 1.33273L7.50365 1.35148C10.8343 1.35148 13.4474 1.00273 13.6043 4.46773C13.6399 5.25835 13.648 5.49585 13.648 7.4971C13.6474 10.5859 13.7061 11.8465 12.7768 12.7802Z" fill="white"/>
<path d="M11.5037 4.39622C12.0005 4.39622 12.4031 3.99356 12.4031 3.49685C12.4031 3.00014 12.0005 2.59747 11.5037 2.59747C11.007 2.59747 10.6044 3.00014 10.6044 3.49685C10.6044 3.99356 11.007 4.39622 11.5037 4.39622Z" fill="white"/>
</g>
<defs>
<clipPath id="clip0_442_7">
<rect width="15" height="15" fill="white"/>
</clipPath>
</defs>
</svg>
