<svg width="94" height="100" viewBox="0 0 94 100" fill="none" xmlns="http://www.w3.org/2000/svg">
<path d="M53.25 18.75H40.75C39.9212 18.75 39.1263 18.4208 38.5403 17.8347C37.9542 17.2487 37.625 16.4538 37.625 15.625C37.625 14.7962 37.9542 14.0013 38.5403 13.4153C39.1263 12.8292 39.9212 12.5 40.75 12.5H53.25C54.0788 12.5 54.8737 12.8292 55.4597 13.4153C56.0458 14.0013 56.375 14.7962 56.375 15.625C56.375 16.4538 56.0458 17.2487 55.4597 17.8347C54.8737 18.4208 54.0788 18.75 53.25 18.75ZM78.25 37.5C77.4212 37.5 76.6263 37.8292 76.0403 38.4153C75.4542 39.0013 75.125 39.7962 75.125 40.625C75.125 41.4538 75.4542 42.2487 76.0403 42.8347C76.6263 43.4208 77.4212 43.75 78.25 43.75C79.0788 43.75 79.8737 43.4208 80.4597 42.8347C81.0458 42.2487 81.375 41.4538 81.375 40.625C81.375 39.7962 81.0458 39.0013 80.4597 38.4153C79.8737 37.8292 79.0788 37.5 78.25 37.5ZM15.75 37.5C14.9212 37.5 14.1263 37.8292 13.5403 38.4153C12.9542 39.0013 12.625 39.7962 12.625 40.625C12.625 41.4538 12.9542 42.2487 13.5403 42.8347C14.1263 43.4208 14.9212 43.75 15.75 43.75C16.5788 43.75 17.3737 43.4208 17.9597 42.8347C18.5458 42.2487 18.875 41.4538 18.875 40.625C18.875 39.7962 18.5458 39.0013 17.9597 38.4153C17.3737 37.8292 16.5788 37.5 15.75 37.5ZM59.5 92.0242V96.875C59.5 97.7038 59.1708 98.4987 58.5847 99.0847C57.9987 99.6708 57.2038 100 56.375 100H37.625C36.7962 100 36.0013 99.6708 35.4153 99.0847C34.8292 98.4987 34.5 97.7038 34.5 96.875V92.0242C14.7078 86.5367 0.125 68.3906 0.125 46.875C0.125 21.0281 21.1531 0 47 0C72.8469 0 93.875 21.0281 93.875 46.875C93.875 68.3906 79.2922 86.5367 59.5 92.0242ZM53.25 81.25H40.75V93.75H53.25V81.25ZM61.3313 68.75H32.6687L38.9187 75H55.0813L61.3313 68.75ZM47 62.5C55.6148 62.5 62.625 55.4898 62.625 46.875C62.625 38.2602 55.6148 31.25 47 31.25C38.3852 31.25 31.375 38.2602 31.375 46.875C31.375 55.4898 38.3852 62.5 47 62.5ZM87.625 46.875C87.625 24.4734 69.4016 6.25 47 6.25C24.5984 6.25 6.375 24.4734 6.375 46.875C6.375 64.9102 18.2039 80.1953 34.5 85.4805V79.4187L22.9156 67.8344C22.478 67.3976 22.1798 66.8408 22.0588 66.2345C21.9378 65.6281 21.9996 64.9995 22.2362 64.4282C22.4728 63.857 22.8736 63.3688 23.3879 63.0256C23.9021 62.6823 24.5067 62.4994 25.125 62.5H31.7695C27.6859 58.5297 25.125 53.0078 25.125 46.875C25.125 34.8133 34.9383 25 47 25C59.0617 25 68.875 34.8133 68.875 46.875C68.875 53.0078 66.3141 58.5297 62.2305 62.5H68.875C69.493 62.5001 70.097 62.6835 70.6108 63.0269C71.1246 63.3703 71.525 63.8583 71.7615 64.4292C71.998 65.0001 72.0598 65.6284 71.9393 66.2345C71.8188 66.8406 71.5213 67.3973 71.0844 67.8344L59.5 79.4187V85.4805C75.7961 80.1953 87.625 64.9102 87.625 46.875Z" fill="#3CBCFF"/>
</svg>
