<svg width="15" height="19" viewBox="0 0 15 19" fill="none" xmlns="http://www.w3.org/2000/svg">
<path d="M10.0484 6.6897C9.80951 6.6897 9.61587 6.88334 9.61587 7.12222V15.2969C9.61587 15.5356 9.80951 15.7294 10.0484 15.7294C10.2873 15.7294 10.4809 15.5356 10.4809 15.2969V7.12222C10.4809 6.88334 10.2873 6.6897 10.0484 6.6897ZM4.94464 6.6897C4.70576 6.6897 4.51212 6.88334 4.51212 7.12222V15.2969C4.51212 15.5356 4.70576 15.7294 4.94464 15.7294C5.18356 15.7294 5.37716 15.5356 5.37716 15.2969V7.12222C5.37716 6.88334 5.18356 6.6897 4.94464 6.6897Z" fill="black"/>
<path d="M1.22494 5.49672V16.1531C1.22494 16.783 1.45591 17.3745 1.85936 17.7989C2.05803 18.0094 2.29753 18.1773 2.56323 18.2922C2.82894 18.4071 3.11528 18.4666 3.40476 18.4671H11.5882C11.8777 18.4666 12.1641 18.4071 12.4298 18.2922C12.6955 18.1773 12.935 18.0095 13.1336 17.7989C13.5371 17.3745 13.7681 16.783 13.7681 16.1531V5.49672C14.5701 5.28384 15.0898 4.50902 14.9825 3.68606C14.8751 2.86323 14.1741 2.24775 13.3441 2.24758H11.1297V1.70693C11.1309 1.48186 11.0874 1.25878 11.0018 1.05066C10.9161 0.842529 10.7899 0.653494 10.6306 0.494528C10.4712 0.335577 10.2819 0.209873 10.0735 0.124717C9.86514 0.0395596 9.64193 -0.00335353 9.41685 -0.00153085H5.57619C5.3511 -0.00335928 5.12789 0.0395511 4.91953 0.124708C4.71116 0.209865 4.52179 0.335572 4.36241 0.494528C4.20307 0.653494 4.07691 0.842529 3.99123 1.05066C3.90555 1.25878 3.86208 1.48186 3.86332 1.70693V2.24758H1.6489C0.818978 2.24775 0.117991 2.86323 0.010509 3.68606C-0.0967563 4.50902 0.422918 5.28384 1.22494 5.49672ZM11.5882 17.6021H3.40481C2.66528 17.6021 2.08998 16.9668 2.08998 16.1531V5.53474H12.903V16.1531C12.903 16.9668 12.3278 17.6021 11.5882 17.6021ZM4.72836 1.70693C4.72695 1.59542 4.74795 1.48476 4.79013 1.38152C4.8323 1.27828 4.89478 1.18457 4.97386 1.10594C5.05292 1.02727 5.14697 0.965271 5.25044 0.923627C5.3539 0.881983 5.46468 0.861541 5.57619 0.863512H9.41685C9.52837 0.861541 9.63914 0.881983 9.74261 0.923627C9.84607 0.965271 9.94012 1.02727 10.0192 1.10594C10.0983 1.18456 10.1607 1.27828 10.2029 1.38152C10.2451 1.48476 10.2661 1.59542 10.2646 1.70693V2.24758H4.72836V1.70693ZM1.6489 3.11262H13.3442C13.7742 3.11262 14.1228 3.46119 14.1228 3.89116C14.1228 4.32113 13.7742 4.6697 13.3442 4.6697H1.64886C1.21889 4.6697 0.870318 4.32113 0.870318 3.89116C0.870318 3.46119 1.21893 3.11262 1.6489 3.11262Z" fill="black"/>
<path d="M7.49649 6.6897C7.2576 6.6897 7.06396 6.88334 7.06396 7.12222V15.2969C7.06396 15.5356 7.2576 15.7294 7.49649 15.7294C7.73541 15.7294 7.92901 15.5356 7.92901 15.2969V7.12222C7.92901 6.88334 7.73541 6.6897 7.49649 6.6897Z" fill="black"/>
</svg>
