<svg width="100" height="100" viewBox="0 0 100 100" fill="none" xmlns="http://www.w3.org/2000/svg">
<g clip-path="url(#clip0_452_8)">
<path d="M73.3333 10C65.19 10 56.25 14.16 49.9933 20.8533C43.75 14.16 34.81 10 26.6667 10C11.9633 10 0 23.3867 0 39.84C0 40.3133 0.00333333 40.7867 0.0433333 41.2633L6.68667 40.6967C6.66667 40.41 6.66667 40.1267 6.66667 39.84C6.66667 27.0633 15.6367 16.6667 26.6667 16.6667C32.9267 16.6667 40.1667 20.0967 45.1167 25.4C47.65 28.12 52.35 28.1167 54.8833 25.4C59.8333 20.1 67.0733 16.6667 73.3333 16.6667C84.3633 16.6667 93.3333 27.0633 93.3333 39.84C93.3333 63.6533 58.3867 84.39 50.19 88.9267C43.7133 84.55 20.0867 68.3067 12.9833 59.6067L7.81667 63.82C16.6667 74.6667 46.88 94.7433 48.1633 95.5933L49.7833 96.6667L51.5167 95.7833C53.49 94.78 100 70.7667 100 39.84C100 23.3867 88.0367 10 73.3333 10Z" fill="#3CBCFF"/>
<path d="M25.4267 38.6L41.6267 67.7567L49.8667 53.3333H66.6667V46.6666H46L41.7067 54.1767L24.5733 23.3333L14.8467 46.6666H0V53.3333H19.29L25.4267 38.6Z" fill="#3CBCFF"/>
</g>
<defs>
<clipPath id="clip0_452_8">
<rect width="100" height="100" fill="white"/>
</clipPath>
</defs>
</svg>
