<svg width="16" height="17" viewBox="0 0 16 17" fill="none" xmlns="http://www.w3.org/2000/svg">
<path fill-rule="evenodd" clip-rule="evenodd" d="M7.91405 0C10.4237 0 12.4606 2.03684 12.4606 4.54651C12.4606 7.05619 10.4237 9.09302 7.91405 9.09302C5.40438 9.09302 3.36754 7.05619 3.36754 4.54651C3.36754 2.03684 5.40438 0 7.91405 0ZM7.91405 1.18605C6.05907 1.18605 4.55359 2.69153 4.55359 4.54651C4.55359 6.40149 6.05907 7.90698 7.91405 7.90698C9.76903 7.90698 11.2745 6.40149 11.2745 4.54651C11.2745 2.69153 9.76903 1.18605 7.91405 1.18605ZM15.228 15.6163C15.228 15.9833 15.0822 16.3352 14.8227 16.5947C14.5632 16.8542 14.2113 17 13.8443 17H1.98382C1.61683 17 1.26488 16.8542 1.00538 16.5947C0.745882 16.3352 0.600098 15.9833 0.600098 15.6163C0.600098 13.9911 1.24571 12.4324 2.39492 11.2832C3.54413 10.134 5.10278 9.48837 6.728 9.48837H9.1001C10.7253 9.48837 12.284 10.134 13.4332 11.2832C14.5824 12.4324 15.228 13.9911 15.228 15.6163ZM14.6516 16.1927C14.6413 16.1967 14.635 16.2014 14.635 16.2093L14.6516 16.1927ZM1.78614 15.6163C1.78614 15.7254 1.8747 15.814 1.98382 15.814H13.8443C13.8967 15.814 13.947 15.7931 13.9841 15.7561C14.0211 15.719 14.042 15.6687 14.042 15.6163C14.042 14.3056 13.5213 13.0486 12.5945 12.1219C11.6677 11.1951 10.4108 10.6744 9.1001 10.6744H6.728C5.41734 10.6744 4.16036 11.1951 3.23358 12.1219C2.3068 13.0486 1.78614 14.3056 1.78614 15.6163Z" fill="#222222"/>
</svg>
