<svg width="101" height="101" viewBox="0 0 101 101" fill="none" xmlns="http://www.w3.org/2000/svg">
<path d="M95.6308 71.8817C98.8195 65.1862 100.464 57.8602 100.443 50.4443C100.443 37.1835 95.1754 24.4658 85.7986 15.0891C76.4219 5.71228 63.7042 0.444458 50.4435 0.444458C37.1827 0.444458 24.465 5.71228 15.0883 15.0891C5.71149 24.4658 0.443668 37.1835 0.443668 50.4443C0.421685 57.8603 2.06635 65.1866 5.25615 71.8817L11.2874 69.0067C9.00226 64.2292 7.62472 59.0687 7.22489 53.788H17.2873C18.0747 61.5519 21.5577 68.7944 27.1311 74.2567V77.1316H18.2873C16.2767 77.1063 14.3053 77.6897 12.6322 78.8051C10.959 79.9205 9.66235 81.5159 8.91238 83.3816L7.56864 86.7254C6.95777 88.25 6.73186 89.9017 6.91086 91.5344C7.08987 93.1671 7.66828 94.7305 8.59499 96.0866C9.5217 97.4427 10.7682 98.5496 12.2242 99.3096C13.6803 100.07 15.3012 100.459 16.9436 100.444H83.9433C85.5857 100.459 87.2066 100.07 88.6627 99.3096C90.1188 98.5496 91.3652 97.4427 92.2919 96.0866C93.2186 94.7305 93.797 93.1671 93.976 91.5344C94.1551 89.9017 93.9291 88.25 93.3183 86.7254L91.9745 83.3816C91.2246 81.5159 89.9279 79.9205 88.2547 78.8051C86.5816 77.6897 84.6103 77.1063 82.5996 77.1316H73.7871V74.2567C79.3604 68.7944 82.8435 61.5519 83.6308 53.788H93.662C93.2653 59.0792 91.8877 64.2505 89.5995 69.0379L95.6308 71.8817ZM82.5996 83.7879C83.2713 83.7788 83.93 83.9742 84.4881 84.3481C85.0462 84.7221 85.4774 85.2569 85.7246 85.8816L87.0683 89.2253C87.2671 89.7331 87.3386 90.2818 87.2767 90.8236C87.2149 91.3653 87.0214 91.8837 86.7133 92.3336C86.4051 92.7835 85.9917 93.1512 85.5089 93.4047C85.0261 93.6581 84.4886 93.7897 83.9433 93.7878H16.9436C16.3983 93.7897 15.8609 93.6581 15.3781 93.4047C14.8953 93.1512 14.4818 92.7835 14.1736 92.3336C13.8655 91.8837 13.6721 91.3653 13.6102 90.8236C13.5483 90.2818 13.6199 89.7331 13.8186 89.2253L15.1311 85.8816C15.3782 85.2569 15.8095 84.7221 16.3676 84.3481C16.9257 83.9742 17.5843 83.7788 18.2561 83.7879H82.5996ZM33.7873 77.1004V73.7879C33.7873 72.9011 34.1396 72.0506 34.7666 71.4235C35.3937 70.7965 36.2442 70.4442 37.131 70.4442H63.7872C64.674 70.4442 65.5245 70.7965 66.1515 71.4235C66.7786 72.0506 67.1309 72.9011 67.1309 73.7879V77.1316L33.7873 77.1004ZM71.2871 67.1317C70.3497 66.0776 69.1992 65.2345 67.9117 64.6581C66.6242 64.0817 65.229 63.7851 63.8184 63.7879H37.0998C35.6891 63.7851 34.294 64.0817 33.0065 64.6581C31.719 65.2345 30.5685 66.0776 29.631 67.1317C26.4886 63.2123 24.5176 58.4848 23.9452 53.4939C23.3729 48.503 24.2226 43.452 26.3963 38.923C28.57 34.394 31.9792 30.5715 36.2311 27.896C40.4829 25.2205 45.4042 23.8009 50.4278 23.8009C55.4514 23.8009 60.3728 25.2205 64.6246 27.896C68.8764 30.5715 72.2857 34.394 74.4594 38.923C76.6331 43.452 77.4827 48.503 76.9104 53.4939C76.3381 58.4848 74.3671 63.2123 71.2246 67.1317H71.2871ZM83.7871 47.1005C82.9497 38.8852 79.0936 31.2729 72.9655 25.7376C66.8373 20.2024 58.8732 17.1381 50.6153 17.1381C42.3574 17.1381 34.3933 20.2024 28.2652 25.7376C22.1371 31.2729 18.281 38.8852 17.4436 47.1005H7.22489C8.10153 36.2443 13.0332 26.1161 21.0386 18.7311C29.044 11.346 39.5363 7.24558 50.4278 7.24558C61.3194 7.24558 71.8117 11.346 79.8171 18.7311C87.8225 26.1161 92.7541 36.2443 93.6308 47.1005H83.7871Z" fill="#3CBCFF"/>
</svg>
